<svg preserveAspectRatio="xMidYMid meet" data-bbox="0 34.6 200 130.7" xmlns="http://www.w3.org/2000/svg" viewBox="0 34.6 200 130.7" role="img" style="fill: rgb(8, 77, 130)">
    <g>
        <path d="M200 99.9c0-26.3-30.7-47.8-68.4-47.8-.7 0-1.3.2-1.9.6-13.5-11.1-33.6-18.1-56.1-18.1C33.1 34.6 0 57.7 0 86.1c0 17.6 12.9 33.9 34 43.3-4.2 9.1-10.4 17.5-13.9 21-1 1-1.3 2.6-.8 3.9.6 1.4 1.9 2.2 3.3 2.2 16.8 0 31.4-6.5 43.4-19.4 2.8.2 5.2.3 7.5.3 4.8 0 9.4-.3 13.9-.9l.1.1c12.2 7.1 27.8 11.1 43.9 11.1 2.1 0 4.3-.1 6.9-.3 11.2 11.9 24.7 17.9 40.2 17.9 1.5 0 2.8-.9 3.3-2.2.6-1.4.3-2.9-.8-4-3.1-3.1-8.8-10.8-12.6-19.1 19.7-8.6 31.6-23.8 31.6-40.1zM65 129.8c-1.1-.1-2.3.3-3 1.2-8.8 9.9-19.2 15.8-31 17.7 4.1-5.5 8.4-12.8 11.2-19.9.4-.9.3-1.9 0-2.8-.4-.9-1.1-1.6-2-1.9-20.3-8-32.9-22.5-32.9-38 0-24.4 29.8-44.2 66.5-44.2s66.5 19.8 66.5 44.2c0 24.3-29.8 44.2-66.5 44.2-2.7-.1-5.5-.2-8.8-.5zm97.5 5c-.9.4-1.6 1-2 1.9-.4.9-.4 1.9 0 2.8 2.5 6.3 6.4 12.8 10 17.9-10.5-1.8-19.8-7.2-27.8-16.2-.8-.9-1.9-1.3-3-1.2-3.1.3-5.7.4-8 .4-11.5 0-22.7-2.2-32.4-6.2 28.1-7.3 48.2-26.1 48.2-48.2 0-9.7-3.9-18.7-10.6-26.5 31.3 1.7 56 19.2 56 40.3-.1 14.3-11.7 27.7-30.4 35z"></path>
        <path d="M70.8 92.9c0 2.1 1.9 3.9 4 3.9h.6c2.2 0 4-1.9 4-3.9l.7-21.3v-9c0-2.2-1.8-4-4-4h-1.9c-2.4 0-4.2 1.7-4.2 4v9.2l.8 21.1z"></path>
        <path d="M75.1 100.4c-3.4 0-6.1 2.7-6.1 6.1 0 3.3 2.8 6.1 6.1 6.1 3.4 0 6.1-2.7 6.1-6.1 0-3.5-2.7-6.1-6.1-6.1z"></path>
    </g>
</svg>