<svg preserveAspectRatio="xMidYMid meet" data-bbox="43 38 114 124" viewBox="43 38 114 124" height="200" width="200" xmlns="http://www.w3.org/2000/svg" data-type="color" role="img">
    <g>
        <path fill="#00c5a2" d="M90.3 38v8.8H69.6V38h20.7z" data-color="1"></path>
        <path d="M157 69h-46.3l.3 33.8c-4-5.6-9.6-10.1-16.3-12.8V61.9h10.2v-8.8H55.1v8.8h11.3v28.2C52.2 95.8 43 109.3 43 124.7c0 20.6 16.8 37.3 37.5 37.3 13.1 0 24.6-6.7 31.3-16.8 2 9.5 10 16.6 19.3 16.6 5 0 9.7-2.1 13.3-5.8.1-.1.2-.3.4-.4 3.6-4 5.6-9.3 5.5-14.9l-.6-62.7h7.2v-9h.1zm-76.5 84.2c-15.8 0-28.6-12.8-28.6-28.5 0-12.6 8.1-23.5 20.2-27.2l3.1-1V61.9h10.6v34.6l3.1 1c11.7 3.6 19.7 14 20.1 26.1H93.7v8.8h14.4c-3.4 11.9-14.5 20.8-27.6 20.8zM143 98.6h-12.6v8.8h12.7l.3 33.3c.1 3.6-1.2 7-3.5 9.5-2.4 2.4-5.4 3.9-8.7 4-6.9 0-12.7-6.1-12.8-13.6l-.5-62.7h25l.1 20.7z" fill="#fff" data-color="2"></path>
        <path fill="#00c5a2" d="M143.1 107.4h-12.7v-8.8H143l.1 8.8z" data-color="1"></path>
        <path d="M93.7 132.5H108c.7-2.5 1.1-5.2 1.1-8v-1H93.7v9z" fill="#00c5a2" data-color="1"></path>
    </g>
</svg>
