<svg preserveAspectRatio="xMidYMid meet" data-bbox="9.999 19 180.001 162" viewBox="9.999 19 180.001 162" height="200" width="200" xmlns="http://www.w3.org/2000/svg" data-type="color" role="img">
    <g>
        <path d="M190 171.928c0 8.887-7.677 9.072-7.677 9.072h-61.6c3.607-3.139 6.752-5.916 9.527-8.331h51.337c0-.454.093-.732.18-1.102v-.093c-.18-.833-.735-2.87-.92-3.61-1.665-5.925-4.532-18.607-4.532-37.399 0-18.237 4.528-42.583 4.528-42.583v.177c.279-1.759.652-4.073.838-5.184h-60.875c.186 1.111.558 3.425.838 5.184v.185c.37 1.944.74 4.073 1.11 6.48-1.48-1.018-2.96-1.851-4.44-2.685-1.757-.926-3.422-1.944-4.902-3.055-.555-2.962-.925-5.554-.925-6.48-.463-7.776 7.215-7.961 7.862-7.961h61.42c.647 0 8.325.185 7.862 7.961 0 1.018-.462 3.888-1.018 7.128-1.48 8.887-4.07 23.698-4.07 41.194 0 17.774 2.682 29.623 4.255 35.085.462 1.666 1.202 4.258 1.202 6.017zM161.418 43.994v-2.861c1.207-.278 1.67-.463 1.67-.463.462-.185.74-.741.18-1.296v-7.961c.56 0 9.347-8.517 18.69-6.202 1.85.555 2.867 1.203 2.867 1.203s1.85-3.61 2.59-4.814c-3.792-2.129-8.325-3.61-23.495-1.759-.925.093-7.4.084-7.4.084h-17.297s-.832.656-.93 1.212v18.237c.097.463.467 1.018.837 1.296 0 0 .463.185 1.013.463v2.861H161.7h-.282zM134.59 65.286h32.288c.554-.277 1.015-1.014 1.015-1.659V45.654c0-.645-.461-1.383-1.015-1.659h-5.535c0 .369-.277.83-.646 1.014 0 0-2.583 1.29-9.963 1.29-7.38 0-9.871-1.29-9.871-1.29-.369-.184-.646-.645-.646-1.014h-5.535c-.554.277-1.015 1.106-1.015 1.751v17.973c-.092.553.37 1.29.923 1.567zM54.022 46.771h5.646v.269c.191 1.344 1.531 2.508 2.966 2.508h23.654c1.442 0 2.787-1.075 2.979-2.508v-.269h4.709c1.538 0 2.691-1.165 2.691-2.508v-.387a2.63 2.63 0 0 0-2.611-2.658H90.14l1.772-15.856c.187-1.424-.839-2.658-2.332-2.658H59.363c-1.399 0-2.518 1.139-2.332 2.658l1.679 15.856h-4.756c-1.492 0-2.611 1.234-2.611 2.658v.387c-.096 1.344 1.148 2.508 2.679 2.508zm84.909 88.625c-.276-16.651-12.874-29.971-24.829-36.446-21.15-11.563-23.909-30.064-23.909-41.165v-2.683h-8.325v2.6c.282 21.662 10.087 38.417 28.68 48.507 9.342 5.091 20.442 15.83 20.627 29.345.277 15.645-14.522 28.697-27.75 37.113h-57.72c-13.227-8.416-28.027-21.468-27.75-37.113.185-13.515 11.192-24.254 20.627-29.345 18.592-9.998 28.397-26.846 28.485-48.507v-2.6h-8.325v2.683c0 11.1-2.667 29.694-23.909 41.164-11.955 6.475-24.553 19.796-24.829 36.446-.275 16.096 11.312 31.822 33.474 45.605h61.98c22.07-13.783 33.657-29.509 33.473-45.604z" fill="#fff" data-color="1"></path>
    </g>
</svg>